<svg width="340" height="97" viewBox="0 0 340 97" fill="none" xmlns="http://www.w3.org/2000/svg">
<path d="M26.3078 72.7638L9.67449 21.5908C8.939 19.158 7.92063 17.4042 6.61938 16.3292C5.31813 15.1977 3.76229 14.4339 1.95186 14.0379L-1.09225e-05 13.6136V11.492L12.7296 11.7466L25.2895 11.492V13.6136L22.9133 13.8682C21.3857 14.0379 19.943 14.3773 18.5852 14.8865C17.284 15.3957 16.6333 16.5272 16.6333 18.2811C16.6333 19.1297 16.8314 20.1198 17.2274 21.2513L30.2116 61.3071L44.9779 21.1665C45.3174 20.1481 45.4871 19.2994 45.4871 18.6205C45.4871 17.3193 45.0062 16.3292 44.0444 15.6503C43.0826 14.9148 41.7814 14.4339 40.1407 14.2076L36.7461 13.6984L37.0856 11.492L40.6498 11.9163C44.7233 12.3689 47.2127 13.6136 48.1179 15.6503C48.9665 13.953 50.2112 12.8781 51.8519 12.4255C53.5492 11.9729 55.1616 11.7183 56.6891 11.6617L59.8291 11.492L59.9988 13.6984L56.774 13.953C53.0966 14.2359 51.2579 15.7917 51.2579 18.6205C51.2579 19.8086 51.5407 21.1382 52.1065 22.6091L66.2788 61.0525L78.7538 20.233C79.0367 19.2146 79.1781 18.3942 79.1781 17.7719C79.1781 16.5272 78.7538 15.6503 77.9052 15.1411C77.0565 14.6319 75.8118 14.2642 74.1711 14.0379L71.3706 13.6984V11.492L82.5727 11.7466L91.5683 11.492V13.6984L89.5315 14.0379C87.6645 14.3208 86.0521 14.8865 84.6943 15.7352C83.393 16.5272 82.5161 17.7153 82.0635 19.2994L65.7696 72.7638H63.0539L45.9114 27.0221L29.0235 72.7638H26.3078ZM106.718 72.9335C102.984 72.9335 99.7307 72.1414 96.9584 70.5573C94.1862 68.9166 92.008 66.6819 90.4239 63.8531C88.8964 60.9677 88.1326 57.6863 88.1326 54.0088C88.1326 50.0485 88.9812 46.5408 90.6785 43.4857C92.3758 40.374 94.6388 37.9412 97.4676 36.1874C100.353 34.377 103.521 33.4717 106.972 33.4717C111.329 33.4717 114.723 34.8579 117.156 37.6301C119.645 40.4023 120.89 44.0515 120.89 48.5775C120.89 49.2564 120.862 49.8222 120.805 50.2748C120.749 50.7274 120.692 51.0386 120.636 51.2083H95.0066C94.95 52.0004 94.9217 52.7924 94.9217 53.5845C94.9217 56.583 95.4026 59.3836 96.3644 61.986C97.3262 64.532 98.7689 66.5687 100.692 68.0963C102.673 69.6238 105.077 70.3876 107.906 70.3876C110.565 70.3876 112.913 69.6521 114.95 68.1811C117.043 66.6536 118.655 64.4188 119.787 61.4769L121.824 62.2406C119.447 69.3692 114.412 72.9335 106.718 72.9335ZM106.972 35.5933C103.465 35.5933 100.721 36.838 98.7406 39.3274C96.817 41.8167 95.6289 45.1264 95.1763 49.2564H105.954C108.5 49.2564 110.424 48.9736 111.725 48.4078C113.083 47.7855 113.988 47.05 114.44 46.2013C114.95 45.2961 115.204 44.4192 115.204 43.5706C115.204 41.0812 114.356 39.1293 112.658 37.7149C110.961 36.3005 109.066 35.5933 106.972 35.5933ZM145.803 72.9335C142.578 72.9335 139.664 72.0566 137.062 70.3027C134.459 68.5489 132.394 66.1727 130.867 63.1741C129.339 60.119 128.576 56.7528 128.576 53.0753C128.576 49.3979 129.339 46.0882 130.867 43.1462C132.394 40.2043 134.488 37.8564 137.147 36.1025C139.806 34.3487 142.804 33.4717 146.142 33.4717C148.519 33.4717 150.697 33.9809 152.677 34.9993C154.657 35.9611 156.298 37.0643 157.599 38.309V20.3178C157.599 17.3759 156.977 15.5089 155.732 14.7168C154.544 13.8682 152.875 13.4438 150.725 13.4438H150.131V11.492C152.451 11.492 154.685 11.4354 156.835 11.3222C158.985 11.1525 161.22 10.8696 163.54 10.4736V62.7498C163.54 65.9181 164.134 67.9265 165.322 68.7752C166.566 69.6238 168.32 70.0481 170.583 70.0481V72H167.104C165.859 72 164.643 72.0283 163.455 72.0849C162.267 72.198 160.937 72.396 159.466 72.6789L158.363 66.7384C156.835 68.5489 154.997 70.0481 152.847 71.2362C150.753 72.3677 148.405 72.9335 145.803 72.9335ZM135.365 53.0753C135.365 56.3567 135.761 59.2987 136.553 61.9012C137.401 64.5037 138.646 66.5687 140.287 68.0963C141.984 69.6238 144.106 70.3876 146.652 70.3876C149.084 70.3876 151.178 69.8501 152.932 68.7752C154.742 67.6436 156.298 66.2858 157.599 64.7017V41.7884C156.637 40.3174 155.195 38.9879 153.271 37.7998C151.347 36.6117 149.226 36.0177 146.906 36.0177C144.304 36.0177 142.154 36.7814 140.457 38.309C138.759 39.78 137.486 41.8167 136.638 44.4192C135.789 46.9651 135.365 49.8505 135.365 53.0753ZM192.047 72.9335C188.822 72.9335 185.909 72.0566 183.306 70.3027C180.704 68.5489 178.639 66.1727 177.111 63.1741C175.584 60.119 174.82 56.7528 174.82 53.0753C174.82 49.3979 175.584 46.0882 177.111 43.1462C178.639 40.2043 180.732 37.8564 183.391 36.1025C186.05 34.3487 189.049 33.4717 192.387 33.4717C194.763 33.4717 196.941 33.9809 198.921 34.9993C200.901 35.9611 202.542 37.0643 203.843 38.309V20.3178C203.843 17.3759 203.221 15.5089 201.976 14.7168C200.788 13.8682 199.119 13.4438 196.969 13.4438H196.375V11.492C198.695 11.492 200.93 11.4354 203.08 11.3222C205.229 11.1525 207.464 10.8696 209.784 10.4736V62.7498C209.784 65.9181 210.378 67.9265 211.566 68.7752C212.811 69.6238 214.564 70.0481 216.828 70.0481V72H213.348C212.103 72 210.887 72.0283 209.699 72.0849C208.511 72.198 207.181 72.396 205.71 72.6789L204.607 66.7384C203.08 68.5489 201.241 70.0481 199.091 71.2362C196.998 72.3677 194.65 72.9335 192.047 72.9335ZM181.609 53.0753C181.609 56.3567 182.005 59.2987 182.797 61.9012C183.646 64.5037 184.89 66.5687 186.531 68.0963C188.228 69.6238 190.35 70.3876 192.896 70.3876C195.329 70.3876 197.422 69.8501 199.176 68.7752C200.986 67.6436 202.542 66.2858 203.843 64.7017V41.7884C202.882 40.3174 201.439 38.9879 199.515 37.7998C197.592 36.6117 195.47 36.0177 193.15 36.0177C190.548 36.0177 188.398 36.7814 186.701 38.309C185.004 39.78 183.731 41.8167 182.882 44.4192C182.033 46.9651 181.609 49.8505 181.609 53.0753ZM219.621 72.2546V70.3027L220.979 70.133C222.62 69.9067 223.865 69.6521 224.713 69.3692C225.618 69.0298 226.241 68.3226 226.58 67.2476C226.92 66.1161 227.089 64.2774 227.089 61.7315V43.8251C227.089 40.8832 226.467 39.0162 225.222 38.2241C224.034 37.3755 222.365 36.9512 220.215 36.9512H219.621V34.9993C221.941 34.9993 224.176 34.9427 226.326 34.8296C228.476 34.6598 230.71 34.377 233.03 33.9809V61.7315C233.03 64.2774 233.2 66.1161 233.539 67.2476C233.879 68.3226 234.473 69.0298 235.321 69.3692C236.226 69.6521 237.499 69.9067 239.14 70.133L240.498 70.3027V72.2546L230.06 72L219.621 72.2546ZM229.041 24.0518C227.57 24.0518 226.411 23.5427 225.562 22.5243C224.713 21.5059 224.289 20.2895 224.289 18.8751C224.289 17.4042 224.713 16.1878 225.562 15.226C226.411 14.2076 227.57 13.6984 229.041 13.6984C230.682 13.6984 231.87 14.2076 232.606 15.226C233.398 16.1878 233.794 17.4042 233.794 18.8751C233.794 20.2895 233.398 21.5059 232.606 22.5243C231.87 23.5427 230.682 24.0518 229.041 24.0518ZM243.738 72.2546V70.3027L245.096 70.133C246.737 69.9067 247.981 69.6521 248.83 69.3692C249.735 69.0298 250.357 68.3226 250.697 67.2476C251.036 66.1161 251.206 64.2774 251.206 61.7315V43.8251C251.206 40.8832 250.584 39.0162 249.339 38.2241C248.151 37.3755 246.482 36.9512 244.332 36.9512H243.738V34.9993C246.058 34.9993 248.292 34.9427 250.442 34.8296C252.592 34.6598 254.827 34.377 257.147 33.9809V40.8549C258.448 38.9313 260.287 37.234 262.663 35.7631C265.039 34.2355 267.811 33.4717 270.979 33.4717C274.827 33.4717 277.853 34.4618 280.06 36.442C282.323 38.3656 283.454 41.1378 283.454 44.7587V61.7315C283.454 64.2774 283.624 66.1161 283.964 67.2476C284.303 68.3226 284.897 69.0298 285.746 69.3692C286.651 69.6521 287.924 69.9067 289.565 70.133L290.922 70.3027V72.2546L280.484 72L270.046 72.2546V70.3027L271.404 70.133C273.044 69.9067 274.289 69.6521 275.138 69.3692C276.043 69.0298 276.665 68.3226 277.005 67.2476C277.344 66.1161 277.514 64.2774 277.514 61.7315V44.7587C277.514 41.9299 276.778 39.78 275.307 38.309C273.836 36.7814 271.771 36.0177 269.112 36.0177C267.076 36.0177 265.237 36.4986 263.596 37.4603C261.956 38.3656 260.598 39.4971 259.523 40.8549C258.448 42.2127 257.656 43.514 257.147 44.7587V61.7315C257.147 64.2774 257.316 66.1161 257.656 67.2476C257.995 68.3226 258.589 69.0298 259.438 69.3692C260.343 69.6521 261.616 69.9067 263.257 70.133L264.615 70.3027V72.2546L254.176 72L243.738 72.2546ZM313.218 60.798C311.295 60.798 309.428 60.5151 307.617 59.9493C306.09 60.2888 304.647 60.8828 303.289 61.7315C301.988 62.5235 301.338 63.5985 301.338 64.9563C301.338 66.1444 301.762 67.0496 302.61 67.6719C303.459 68.2377 304.562 68.6337 305.92 68.86C307.278 69.0298 308.749 69.1712 310.333 69.2844L314.067 69.4541C317.631 69.6238 320.856 70.0198 323.742 70.6422C326.627 71.2079 328.918 72.3395 330.616 74.0367C332.369 75.734 333.246 78.3365 333.246 81.8442C333.246 85.0691 332.285 87.7847 330.361 89.9912C328.494 92.2542 326.033 93.9798 322.978 95.1679C319.979 96.356 316.726 96.95 313.218 96.95C309.711 96.95 306.373 96.4691 303.205 95.5073C300.093 94.5455 297.547 93.0746 295.567 91.0944C293.643 89.1142 292.681 86.5683 292.681 83.4566C292.681 81.6462 293.106 80.1469 293.954 78.9588C294.86 77.7708 296.019 77.1767 297.434 77.1767C298.396 77.1767 299.216 77.4313 299.895 77.9405C300.574 78.5062 300.913 79.3266 300.913 80.4015C300.913 81.3633 300.743 82.1271 300.404 82.6929C300.065 83.3152 299.697 83.9375 299.301 84.5599C298.961 85.1822 298.792 85.9743 298.792 86.9361C298.792 88.8597 299.442 90.3872 300.743 91.5187C302.101 92.7068 303.855 93.5555 306.005 94.0646C308.211 94.5738 310.616 94.8284 313.218 94.8284C316.104 94.8284 318.763 94.4041 321.196 93.5555C323.628 92.7068 325.58 91.4339 327.051 89.7366C328.579 88.0959 329.343 86.0591 329.343 83.6264C329.343 81.0804 328.324 79.2134 326.288 78.0253C324.307 76.8938 321.224 76.2149 317.037 75.9886L308.381 75.5643C306.684 75.4511 304.874 75.2248 302.95 74.8854C301.083 74.5459 299.499 73.8387 298.198 72.7638C296.896 71.7454 296.246 70.1896 296.246 68.0963C296.246 65.8898 297.151 63.9662 298.961 62.3255C300.828 60.6848 302.893 59.5533 305.156 58.9309C302.893 57.7428 301.055 56.1304 299.64 54.0937C298.226 52.057 297.519 49.7373 297.519 47.1348C297.519 44.5323 298.198 42.2127 299.555 40.176C300.97 38.1393 302.865 36.5268 305.241 35.3387C307.617 34.0941 310.277 33.4717 313.218 33.4717C316.613 33.4717 319.64 34.2921 322.299 35.9328C323.487 34.2921 324.93 33.1323 326.627 32.4534C328.324 31.7179 330.022 31.3501 331.719 31.3501C333.473 31.3501 334.972 31.8027 336.217 32.708C337.518 33.5566 338.168 34.7164 338.168 36.1874C338.168 37.3755 337.772 38.309 336.98 38.9879C336.245 39.6102 335.425 39.9214 334.519 39.9214C332.426 39.9214 331.153 38.7333 330.7 36.3571C330.587 35.6782 330.333 35.1124 329.937 34.6598C329.597 34.2072 329.06 33.9809 328.324 33.9809C327.419 33.9809 326.57 34.3204 325.778 34.9993C325.043 35.6216 324.421 36.3005 323.911 37.036C325.439 38.2807 326.655 39.78 327.56 41.5338C328.466 43.2877 328.918 45.1547 328.918 47.1348C328.918 49.6808 328.211 52.0004 326.797 54.0937C325.439 56.1304 323.572 57.7711 321.196 59.0158C318.819 60.2039 316.16 60.798 313.218 60.798ZM313.218 58.6764C316.556 58.6764 318.904 57.5731 320.262 55.3667C321.677 53.1602 322.384 50.4163 322.384 47.1348C322.384 43.8534 321.677 41.1095 320.262 38.903C318.904 36.6966 316.556 35.5933 313.218 35.5933C309.937 35.5933 307.589 36.6966 306.175 38.903C304.76 41.1095 304.053 43.8534 304.053 47.1348C304.053 50.4163 304.76 53.1602 306.175 55.3667C307.589 57.5731 309.937 58.6764 313.218 58.6764Z" fill="#FAE9E7"/>
<path d="M26.804 72.7638L10.1706 21.5908C9.43512 19.158 8.41675 17.4042 7.1155 16.3292C5.81425 15.1977 4.25841 14.4339 2.44798 14.0379L0.49611 13.6136V11.492L13.2257 11.7466L25.7856 11.492V13.6136L23.4094 13.8682C21.8818 14.0379 20.4392 14.3773 19.0813 14.8865C17.7801 15.3957 17.1295 16.5272 17.1295 18.2811C17.1295 19.1297 17.3275 20.1198 17.7235 21.2513L30.7077 61.3071L45.474 21.1665C45.8135 20.1481 45.9832 19.2994 45.9832 18.6205C45.9832 17.3193 45.5023 16.3292 44.5405 15.6503C43.5787 14.9148 42.2775 14.4339 40.6368 14.2076L37.2422 13.6984L37.5817 11.492L41.146 11.9163C45.2194 12.3689 47.7088 13.6136 48.614 15.6503C49.4626 13.953 50.7073 12.8781 52.348 12.4255C54.0453 11.9729 55.6577 11.7183 57.1853 11.6617L60.3252 11.492L60.495 13.6984L57.2701 13.953C53.5927 14.2359 51.754 15.7917 51.754 18.6205C51.754 19.8086 52.0369 21.1382 52.6026 22.6091L66.7749 61.0525L79.2499 20.233C79.5328 19.2146 79.6742 18.3942 79.6742 17.7719C79.6742 16.5272 79.2499 15.6503 78.4013 15.1411C77.5526 14.6319 76.308 14.2642 74.6673 14.0379L71.8667 13.6984V11.492L83.0688 11.7466L92.0644 11.492V13.6984L90.0276 14.0379C88.1606 14.3208 86.5482 14.8865 85.1904 15.7352C83.8891 16.5272 83.0122 17.7153 82.5596 19.2994L66.2657 72.7638H63.5501L46.4075 27.0221L29.5196 72.7638H26.804Z" fill="#B99692"/>
</svg>
