<svg width="21" height="23" viewBox="0 0 21 23" fill="none" xmlns="http://www.w3.org/2000/svg">
<path d="M5.25 0C5.44891 0 5.63968 0.0790176 5.78033 0.21967C5.92098 0.360322 6 0.551088 6 0.75V3H15V0.75C15 0.551088 15.079 0.360322 15.2197 0.21967C15.3603 0.0790176 15.5511 0 15.75 0C15.9489 0 16.1397 0.0790176 16.2803 0.21967C16.421 0.360322 16.5 0.551088 16.5 0.75V3H19.25C20.216 3 21 3.784 21 4.75V20.75C21 21.2141 20.8156 21.6592 20.4874 21.9874C20.1592 22.3156 19.7141 22.5 19.25 22.5H1.75C1.28587 22.5 0.840752 22.3156 0.512563 21.9874C0.184375 21.6592 0 21.2141 0 20.75V4.75C0 3.784 0.784 3 1.75 3H4.5V0.75C4.5 0.551088 4.57902 0.360322 4.71967 0.21967C4.86032 0.0790176 5.05109 0 5.25 0ZM19.5 9.5H1.5V20.75C1.5 20.888 1.612 21 1.75 21H19.25C19.3163 21 19.3799 20.9737 19.4268 20.9268C19.4737 20.8799 19.5 20.8163 19.5 20.75V9.5ZM1.75 4.5C1.6837 4.5 1.62011 4.52634 1.57322 4.57322C1.52634 4.62011 1.5 4.6837 1.5 4.75V8H19.5V4.75C19.5 4.6837 19.4737 4.62011 19.4268 4.57322C19.3799 4.52634 19.3163 4.5 19.25 4.5H1.75Z" fill="#888888"/>
</svg>
