<svg width="39" height="41" viewBox="0 0 39 41" fill="none" xmlns="http://www.w3.org/2000/svg">
<path d="M12.9301 0.12793C12.9377 0.12793 13.2699 0.143387 13.5951 0.166016C13.758 0.177356 13.9209 0.19027 14.0414 0.204102C14.1014 0.21099 14.1531 0.218046 14.1888 0.225586C14.206 0.229216 14.2228 0.233731 14.2357 0.239258C14.2415 0.241744 14.2515 0.247098 14.2601 0.255859C14.2648 0.260639 14.2716 0.268659 14.2748 0.280273L14.2709 0.317383C14.2514 0.357919 14.2126 0.385519 14.1713 0.404297C14.1288 0.423579 14.0755 0.437646 14.0179 0.448242C13.9027 0.469406 13.7584 0.478142 13.6136 0.480469C13.4682 0.482804 13.3198 0.478156 13.1967 0.473633C13.0723 0.469062 12.976 0.464844 12.9301 0.464844C9.98898 0.464852 7.4925 0.937408 5.38513 3.21387C3.10552 5.67761 2.25779 9.24024 2.99841 12.4941C3.73913 15.7334 6.09342 18.598 9.33142 19.5547C10.2297 19.8191 11.1913 19.8857 12.1635 19.8857C12.6495 19.8857 13.1377 19.8692 13.6215 19.8525C14.1047 19.8359 14.5839 19.8193 15.0511 19.8193C15.0588 19.8193 15.3911 19.8348 15.7162 19.8574C15.879 19.8688 16.042 19.8817 16.1625 19.8955C16.2225 19.9024 16.2742 19.9104 16.3099 19.918C16.3271 19.9216 16.3439 19.9252 16.3568 19.9307C16.3626 19.9331 16.3726 19.9385 16.3812 19.9473C16.3859 19.952 16.3927 19.96 16.3959 19.9717C16.3966 19.9742 16.3946 19.977 16.3949 19.9795L16.3969 19.9805V19.9873H16.3949C16.3947 19.9948 16.396 20.0022 16.3929 20.0088L16.3871 20.0068C16.3667 20.044 16.3315 20.0701 16.2924 20.0879C16.25 20.1071 16.1974 20.1212 16.14 20.1318C16.0247 20.1531 15.8797 20.1617 15.7347 20.1641C15.5893 20.1664 15.4408 20.1627 15.3177 20.1582C15.1935 20.1536 15.0971 20.1484 15.0511 20.1484C12.7837 20.1485 10.3877 20.3374 8.1283 19.9961C4.21159 19.404 1.18329 16.3329 0.312866 12.5127C-0.627876 8.39969 0.993003 3.84995 4.61853 1.56445C7.16194 -0.0367348 10.074 0.127927 12.9301 0.12793Z" fill="#191919" stroke="#191919" stroke-width="0.1"/>
<path d="M18.1304 0.0498047C18.3713 0.0498054 19.0969 0.0510531 19.7622 0.0742188C20.0946 0.0857959 20.4131 0.10311 20.6489 0.12793C20.7665 0.1403 20.8656 0.154553 20.936 0.171875C20.9708 0.180432 21.0017 0.190876 21.0249 0.203125C21.0365 0.209246 21.0491 0.217661 21.0591 0.228516C21.0693 0.239777 21.0786 0.256228 21.0786 0.277344V39.7734H24.9683C25.8897 39.7735 26.8506 39.8657 27.7583 39.7734C30.0285 39.5382 32.1421 38.0415 33.48 36.2539C36.2504 32.5513 36.1988 27.1194 33.3364 23.4834C31.9876 21.7734 29.9291 20.3904 27.728 20.1553C27.1724 20.0964 26.6004 20.0965 26.0259 20.1113C25.4526 20.1261 24.8745 20.1562 24.313 20.1562C24.3053 20.1562 23.9731 20.1398 23.6479 20.1172C23.4851 20.1059 23.3222 20.0929 23.2017 20.0791C23.1417 20.0722 23.09 20.0652 23.0542 20.0576C23.037 20.054 23.0202 20.0495 23.0073 20.0439C23.0016 20.0415 22.9916 20.0361 22.9829 20.0273C22.9782 20.0226 22.9714 20.0146 22.9683 20.0029C22.9648 19.9902 22.967 19.9768 22.9722 19.9658L23.0142 19.9141C23.0315 19.9 23.0512 19.8882 23.0718 19.8789C23.1141 19.8597 23.1667 19.8455 23.2241 19.835C23.3395 19.8137 23.4844 19.8051 23.6294 19.8027C23.7749 19.8004 23.9233 19.805 24.0464 19.8096C24.1707 19.8141 24.267 19.8184 24.313 19.8184C25.7752 19.8184 27.3074 19.7378 28.8032 19.8389C30.3001 19.94 31.7678 20.2236 33.1089 20.957L33.1167 20.9609L33.1177 20.9619C36.8836 23.0227 38.4902 27.2264 38.0815 31.165C37.6727 35.1043 35.2466 38.7901 30.936 39.8086C28.8036 40.3101 26.4538 40.1104 24.2944 40.1104H17.5747C17.5625 40.1101 17.2326 40.0938 16.9097 40.0713C16.7466 40.0599 16.5839 40.047 16.4634 40.0332C16.4036 40.0263 16.3526 40.0192 16.3169 40.0117C16.2998 40.0081 16.2829 40.0035 16.27 39.998C16.2643 39.9956 16.2533 39.9912 16.2446 39.9824C16.2399 39.9777 16.2341 39.9687 16.231 39.957C16.2276 39.9444 16.2289 39.9318 16.2339 39.9209V39.9199C16.2534 39.8793 16.2931 39.8528 16.3345 39.834C16.3769 39.8147 16.4293 39.8006 16.4868 39.79C16.602 39.7688 16.7463 39.7601 16.8911 39.7578C17.0365 39.7555 17.185 39.7591 17.3081 39.7637C17.4324 39.7682 17.5286 39.7734 17.5747 39.7734H18.3872V0.381836C18.1931 0.382049 17.83 0.384146 17.5034 0.376953C17.325 0.373019 17.1561 0.366797 17.0317 0.356445C16.9699 0.351286 16.9164 0.344787 16.8784 0.336914C16.86 0.333079 16.8419 0.327804 16.8276 0.321289C16.8206 0.318066 16.8112 0.313237 16.8032 0.305664C16.7991 0.3017 16.7942 0.296176 16.7905 0.289062L16.7847 0.262695L16.7944 0.227539C16.8 0.218078 16.8067 0.210453 16.813 0.205078C16.8259 0.194022 16.842 0.185479 16.8579 0.178711C16.8902 0.164976 16.9341 0.152921 16.9839 0.142578C17.0844 0.121709 17.2203 0.104522 17.3638 0.0908203C17.6511 0.0633873 17.9768 0.0498047 18.1304 0.0498047Z" fill="#191919" stroke="#191919" stroke-width="0.1"/>
</svg>
