<svg width="49" height="60" viewBox="0 0 49 60" fill="none" xmlns="http://www.w3.org/2000/svg">
<path d="M48.9824 59.4949C49.0528 59.3195 45.1097 59.1792 45.0745 59.1792C39.4416 59.1792 33.2453 59.9859 27.7885 58.3726C17.9661 55.4792 10.8369 46.8342 8.58377 37.0493C6.34821 27.2294 8.9006 16.4801 15.8185 9.02751C22.2084 2.13603 29.7952 0.715651 38.6846 0.715651C39.2479 0.715651 42.2933 0.961147 42.5925 0.364938C42.6629 0.189582 38.7198 0.0142252 38.6846 0.0142252C30.0592 0.0142252 21.3282 -0.476769 13.7062 4.31044C2.82759 11.1318 -2.03074 24.7394 0.785715 37.0318C3.39094 48.4475 12.4916 57.6361 24.2327 59.3897C31.0275 60.4067 38.227 59.8456 45.0921 59.8456C45.6554 59.8456 48.7007 60.0735 49 59.4773L48.9824 59.4949Z" fill="black"/>
</svg>
